# Alias OBJ Model File
# Exported from SketchUp, (c) 2000-2012 Trimble Navigation Limited
# File units = centimeters

mtllib call button.mtl

g Mesh1 Button1 Model

usemtl FrontColor
v -72.9117 -111.762 -33.793
vt -2.56693 3.51575
vn -1 -3.85186e-34 -0
v -72.9117 -114.637 -31.303
vt -1.58661 2.38386
v -72.9117 -111.762 -31.303
vt -1.58661 3.51575
f 1/1/1 2/2/1 3/3/1

v -72.9117 -114.637 -33.793
vt -2.56693 2.38386
f 2/2/1 1/1/1 4/4/1

vt -0.30315 3.51575
vn 1.2326e-32 0 -1
v -71.4117 -114.637 -33.793
vt -0.893701 2.38386
vt -0.30315 2.38386
f 1/5/2 5/6/2 4/7/2

v -66.4367 -113.262 -33.793
vt -2.85236 2.9252
f 5/6/2 1/5/2 6/8/2

v -66.4367 -111.762 -33.793
vt -2.85236 3.51575
f 6/8/2 1/5/2 7/9/2

vt 0.30315 2.56693
vn 3.85186e-34 1 -0
v -66.4367 -111.762 -31.303
vt 2.85236 1.58661
vt 2.85236 2.56693
f 1/10/3 8/11/3 7/12/3

vt 0.30315 1.58661
f 8/11/3 1/10/3 3/13/3

vt 0.30315 3.51575
vn 9.53344e-17 -1.34684e-15 1
v -66.4367 -113.262 -31.303
vt 2.85236 2.9252
vt 2.85236 3.51575
f 3/14/4 9/15/4 8/16/4

vt 0.30315 2.38386
f 2/17/4 9/15/4 3/14/4

v -61.8567 -113.262 -31.303
vt 4.65551 2.9252
f 2/17/4 10/18/4 9/15/4

v -71.4117 -114.637 -31.303
vt 0.893701 2.38386
f 11/19/4 10/18/4 2/17/4

v -67.2654 -114.772 -31.303
vt 2.52611 2.33095
f 12/20/4 10/18/4 11/19/4

v -61.8567 -114.772 -31.303
vt 4.65551 2.33095
f 10/18/4 12/20/4 13/21/4

vt 2.52611 1.58661
vn 7.06584e-32 1 -2.23421e-16
v -52.9714 -114.772 -25.993
vt 8.15366 -0.503937
vt 4.65551 1.58661
f 12/22/5 14/23/5 13/24/5

v -67.2654 -114.772 -25.993
vt 2.52611 -0.503937
f 14/23/5 12/22/5 15/25/5

vt -1.58661 3.36199
vn -0.816228 0.57773 -3.86722e-16
v -69.9063 -118.503 -25.993
vt 0.503937 1.5623
vt 0.503937 3.36199
f 12/26/6 16/27/6 15/28/6

v -69.9063 -118.503 -31.303
vt -1.58661 1.5623
f 16/27/6 12/26/6 17/29/6

v -71.4117 -118.503 -31.303
vt 0.893701 0.861985
vt 1.48637 0.861985
f 12/20/4 18/30/4 17/31/4

f 18/30/4 12/20/4 11/19/4

vt -1.58661 0.861985
f 5/4/1 18/32/1 11/2/1

v -71.4117 -118.637 -31.303
vt -1.58661 0.809055
f 18/32/1 5/4/1 19/33/1

v -71.4117 -118.637 -33.793
vt -2.56693 0.809055
f 19/33/1 5/4/1 20/34/1

v -51.4617 -118.637 -33.793
vt -8.74803 0.809055
vt -0.893701 0.809055
f 5/6/2 21/35/2 20/36/2

v -51.4617 -116.637 -33.793
vt -8.74803 1.59646
f 21/35/2 5/6/2 22/37/2

v -51.4617 -114.637 -33.793
vt -8.74803 2.38386
f 22/37/2 5/6/2 23/38/2

f 5/6/2 6/8/2 23/38/2

v -49.9617 -114.637 -33.793
vt -9.33858 2.38386
f 23/38/2 6/8/2 24/39/2

v -56.4367 -113.262 -33.793
vt -6.78937 2.9252
f 25/40/2 24/39/2 6/8/2

v -49.9617 -111.762 -33.793
vt -9.33858 3.51575
f 24/39/2 25/40/2 26/41/2

v -56.4367 -111.762 -33.793
vt -6.78937 3.51575
f 26/41/2 25/40/2 27/42/2

v -56.4367 -113.262 -31.303
vt -1.58661 2.9252
vt -2.56693 2.9252
f 28/43/1 27/1/1 25/44/1

v -56.4367 -111.762 -31.303
f 27/1/1 28/43/1 29/3/1

vt 6.78937 2.9252
vn 7.28194e-17 -1.97286e-15 1
v -49.9617 -111.762 -31.303
vt 9.33858 3.51575
vt 6.78937 3.51575
f 28/45/7 30/46/7 29/47/7

v -51.4617 -114.637 -31.303
vt 8.74803 2.38386
f 31/48/7 30/46/7 28/45/7

v -49.9617 -114.637 -31.303
vt 9.33858 2.38386
f 30/46/7 31/48/7 32/49/7

vt -8.74803 1.58661
vn -3.85186e-34 -1 -0
vt -9.33858 2.56693
vt -9.33858 1.58661
f 31/50/8 24/51/8 32/52/8

vt -8.74803 2.56693
f 24/51/8 31/50/8 23/53/8

vt 1.58661 2.38386
vn 1 3.85186e-34 -0
vt 2.56693 1.59646
vt 2.56693 2.38386
f 31/54/9 22/55/9 23/56/9

v -51.4617 -114.772 -31.303
vt 1.58661 2.33095
f 33/57/9 22/55/9 31/54/9

v -51.4617 -116.637 -31.303
vt 1.58661 1.59646
f 22/55/9 33/57/9 34/58/9

v -52.9714 -114.772 -31.303
vt 8.15366 2.33095
vn -2.21017e-16 1.81398e-15 1
vt 8.74803 1.59646
vt 8.74803 2.33095
f 35/59/10 34/60/10 33/61/10

v -55.6123 -118.503 -31.303
vt 7.11393 0.861985
f 36/62/10 34/60/10 35/59/10

v -51.4617 -118.637 -31.303
vt 8.74803 0.809055
f 34/60/10 36/62/10 37/63/10

v -61.8567 -118.503 -31.303
vt 4.65551 0.861985
f 38/64/10 37/63/10 36/62/10

v -61.8567 -120.012 -31.303
vt 4.65551 0.267717
f 39/65/10 37/63/10 38/64/10

v -49.9617 -118.637 -31.303
vt 9.33858 0.809055
f 39/65/10 40/66/10 37/63/10

v -56.4367 -120.012 -31.303
vt 6.78937 0.267717
f 41/67/10 40/66/10 39/65/10

v -56.4367 -121.512 -31.303
vt 6.78937 -0.322835
f 42/68/10 40/66/10 41/67/10

v -49.9617 -121.512 -31.303
vt 9.33858 -0.322835
f 40/66/10 42/68/10 43/69/10

vt -6.78937 1.58661
v -49.9617 -121.512 -33.793
f 42/70/8 44/51/8 43/52/8

v -56.4367 -121.512 -33.793
vt -6.78937 2.56693
f 44/51/8 42/70/8 45/71/8

vt -1.58661 -0.322835
v -56.4367 -120.012 -33.793
vt -2.56693 0.267717
vt -2.56693 -0.322835
f 42/72/1 46/73/1 45/74/1

vt -1.58661 0.267717
f 46/73/1 42/72/1 41/75/1

vt -4.65551 1.58661
vn 9.01329e-16 -1 -5.94923e-15
f 39/76/11 46/71/11 41/70/11

v -66.4367 -120.012 -31.303
vt -2.85236 1.58661
f 47/77/11 46/71/11 39/76/11

v -66.4367 -120.012 -33.793
vt -2.85236 2.56693
f 46/71/11 47/77/11 48/78/11

vt 1.58661 0.267717
v -66.4367 -121.512 -33.793
vt 2.56693 -0.322835
vt 2.56693 0.267717
f 47/79/9 49/80/9 48/81/9

v -66.4367 -121.512 -31.303
vt 1.58661 -0.322835
f 49/80/9 47/79/9 50/82/9

vt 2.85236 0.267717
vn 6.72861e-17 3.0231e-15 1
v -72.9117 -121.512 -31.303
vt 0.30315 -0.322835
vt 2.85236 -0.322835
f 47/83/12 51/84/12 50/85/12

v -72.9117 -118.637 -31.303
vt 0.30315 0.809055
f 51/84/12 47/83/12 52/86/12

vt 0.893701 0.809055
f 52/86/12 47/83/12 19/87/12

f 47/83/12 38/64/12 19/87/12

f 38/64/12 47/83/12 39/65/12

f 19/87/12 38/64/12 18/30/12

f 18/30/12 38/64/12 17/31/12

vn -7.06584e-32 -1 2.23421e-16
vt -1.48637 -0.503937
vt -1.48637 1.58661
f 38/76/13 16/88/13 17/89/13

v -55.6123 -118.503 -25.993
vt -7.11393 -0.503937
f 16/88/13 38/76/13 53/90/13

vt -7.11393 1.58661
f 53/90/13 38/76/13 36/91/13

vt 1.58661 4.8135
vn 0.816228 -0.57773 3.86722e-16
vt -0.503937 6.6132
vt -0.503937 4.8135
f 36/92/14 14/93/14 53/94/14

vt 1.58661 6.6132
f 14/93/14 36/92/14 35/95/14

vt 8.15366 1.58661
f 13/24/5 14/23/5 35/96/5

f 35/59/7 31/48/7 13/21/7

f 31/48/7 35/59/7 33/61/7

f 13/21/7 31/48/7 10/18/7

f 10/18/7 31/48/7 28/45/7

vt 6.78937 2.56693
vt 6.78937 1.58661
f 25/97/3 10/24/3 28/98/3

f 6/12/3 10/24/3 25/97/3

f 10/24/3 6/12/3 9/11/3

vt 2.56693 2.9252
vt 1.58661 3.51575
vt 1.58661 2.9252
f 6/99/9 8/100/9 9/101/9

vt 2.56693 3.51575
f 8/100/9 6/99/9 7/102/9

vn -3.15653e-16 2.23421e-16 1
f 14/59/15 16/31/15 53/62/15

f 16/31/15 14/59/15 15/20/15

vt 0.893701 1.58661
v -72.9117 -118.637 -33.793
f 19/103/3 54/10/3 52/13/3

vt 0.893701 2.56693
f 54/10/3 19/103/3 20/104/3

v -49.9617 -118.637 -33.793
vt -9.33858 0.809055
vt -0.30315 0.809055
f 55/105/2 54/106/2 20/36/2

vt -6.78937 0.267717
f 55/105/2 46/107/2 54/106/2

vt -9.33858 -0.322835
f 44/108/2 46/107/2 55/105/2

vt -6.78937 -0.322835
f 46/107/2 44/108/2 45/109/2

vt 1.58661 0.809055
vt 2.56693 0.809055
f 40/110/9 44/80/9 55/111/9

f 44/80/9 40/110/9 43/82/9

vt 8.74803 2.56693
vt 9.33858 1.58661
vt 9.33858 2.56693
f 21/112/3 40/113/3 55/114/3

vt 8.74803 1.58661
f 40/113/3 21/112/3 37/115/3

f 21/111/9 34/58/9 37/110/9

f 34/58/9 21/111/9 22/55/9

f 55/105/2 20/36/2 21/35/2

vt -2.85236 0.267717
f 48/116/2 54/106/2 46/107/2

vt -2.85236 -0.322835
f 49/117/2 54/106/2 48/116/2

v -72.9117 -121.512 -33.793
vt -0.30315 -0.322835
f 54/106/2 49/117/2 56/118/2

vt -0.30315 1.58661
vt -0.30315 2.56693
f 49/78/8 51/119/8 56/120/8

f 51/119/8 49/78/8 50/77/8

f 51/72/1 54/34/1 56/74/1

f 54/34/1 51/72/1 52/33/1

f 24/56/9 30/100/9 32/54/9

f 30/100/9 24/56/9 26/102/9

f 27/97/3 30/113/3 26/114/3

f 30/113/3 27/97/3 29/98/3

vt -0.893701 2.56693
vt -0.893701 1.58661
f 2/119/8 5/121/8 11/122/8

f 5/121/8 2/119/8 4/120/8

