# Alias OBJ Model File
# Exported from SketchUp, (c) 2000-2012 Trimble Navigation Limited
# File units = centimeters

mtllib speaker grill.mtl

g Mesh1 Group1 Model

usemtl FrontColor
v 47.5687 86.3143 -1.7
vt 5.44701 2.41618
vn 2.80364e-16 3.04963e-15 1
v 34.61 86.3143 -1.7
vt 0.345154 2.41618
v 35.46 86.3143 -1.7
vt 0.6798 2.41618
f 1/1/1 2/2/1 3/3/1

v 34.61 87.6294 -1.7
vt 0.345154 2.93394
f 4/4/1 2/2/1 1/1/1

v 33.8833 92.3014 -1.7
vt 0.0590551 4.77331
f 5/5/1 2/2/1 4/4/1

v 34.61 84.9992 -1.7
vt 0.345154 1.89843
f 5/5/1 6/6/1 2/2/1

v 34.61 83.6841 -1.7
vt 0.345154 1.38067
f 5/5/1 7/7/1 6/6/1

v 34.61 82.369 -1.7
vt 0.345154 0.862911
f 5/5/1 8/8/1 7/7/1

v 34.61 81.0539 -1.7
vt 0.345154 0.345154
f 5/5/1 9/9/1 8/8/1

v 33.8833 80.1772 -1.7
vt 0.0590551 1.0784e-29
f 10/10/1 9/9/1 5/5/1

v 34.61 80.1772 -1.7
vt 0.345154 -2.95108e-31
f 9/9/1 10/10/1 11/11/1

vt -0.0590551 3.55271e-15
vn 0 -1 -0
v 34.61 80.1772 -4
vt -0.345154 0.905512
vt -0.345154 0
f 10/12/2 12/13/2 11/14/2

v 33.8833 80.1772 -4
vt -0.0590551 0.905512
f 12/13/2 10/12/2 13/15/2

vt -7.10543e-15 4.77331
vn -1 0 -0
vt -0.905512 0
vt -3.55271e-15 0
f 5/16/3 13/17/3 10/18/3

v 33.8833 92.3014 -4
vt -0.905512 4.77331
f 13/17/3 5/16/3 14/19/3

v 48.2954 92.3014 -1.7
vt 5.73311 1.75415e-14
vn 0 1 -0
vt 0.0590551 0.905512
vt 0.0590551 7.10543e-15
f 15/20/4 14/21/4 5/22/4

v 48.2954 92.3014 -4
vt 5.73311 0.905512
f 14/21/4 15/20/4 16/23/4

vt 6.2948e-15 4.77331
vn 1 -3.67596e-16 -1.96172e-15
v 48.2954 80.1772 -4
vt 0.905512 2.10747e-15
vt 0.905512 4.77331
f 15/24/5 17/25/5 16/26/5

v 48.2954 80.1772 -1.7
vt -7.91606e-15 2.10747e-15
f 17/25/5 15/24/5 18/27/5

vt 5.73311 4.77331
v 47.5687 80.1772 -1.7
vt 5.44701 6.17724e-30
vt 5.73311 5.25547e-30
f 15/28/1 19/29/1 18/30/1

v 47.5687 81.0539 -1.7
vt 5.44701 0.345154
f 19/29/1 15/28/1 20/31/1

v 47.5687 82.369 -1.7
vt 5.44701 0.862911
f 20/31/1 15/28/1 21/32/1

v 47.5687 83.6841 -1.7
vt 5.44701 1.38067
f 21/32/1 15/28/1 22/33/1

v 47.5687 84.9992 -1.7
vt 5.44701 1.89843
f 22/33/1 15/28/1 23/34/1

f 23/34/1 15/28/1 1/1/1

v 47.5687 87.6294 -1.7
vt 5.44701 2.93394
f 1/1/1 15/28/1 24/35/1

v 47.5687 88.9445 -1.7
vt 5.44701 3.4517
f 24/35/1 15/28/1 25/36/1

v 47.5687 90.2596 -1.7
vt 5.44701 3.96945
f 25/36/1 15/28/1 26/37/1

v 47.5687 91.5747 -1.7
vt 5.44701 4.48721
f 26/37/1 15/28/1 27/38/1

v 34.61 91.5747 -1.7
vt 0.345154 4.48721
f 27/38/1 15/28/1 28/39/1

f 5/5/1 28/39/1 15/28/1

v 34.61 90.2596 -1.7
vt 0.345154 3.96945
f 5/5/1 29/40/1 28/39/1

v 34.61 88.9445 -1.7
vt 0.345154 3.4517
f 5/5/1 30/41/1 29/40/1

f 5/5/1 4/4/1 30/41/1

vt 1.70548e-14 2.93394
vn 1 6.86174e-15 -2.05335e-15
v 34.61 88.9445 -6.09472
vt 1.7302 3.4517
vt 6.39671e-15 3.4517
f 4/42/6 31/43/6 30/44/6

v 34.61 87.6294 -6.09472
vt 1.7302 2.93394
f 31/43/6 4/42/6 32/45/6

v 35.46 87.6294 -1.7
vt 0.6798 -5.40852e-14
vn -3.45316e-29 1 -2.46402e-14
vt 0.345154 1.7302
vt 0.345154 -5.45293e-14
f 33/46/7 32/47/7 4/48/7

v 47.5687 87.6294 -6.09472
vt 5.44701 1.7302
f 32/47/7 33/46/7 34/49/7

vt 5.44701 -4.74238e-14
f 34/49/7 33/46/7 24/50/7

vt 0.6798 2.93394
f 4/4/1 24/35/1 33/51/1

f 4/4/1 1/1/1 24/35/1

vt -1.36844e-14 2.93394
vn -1 -6.86174e-15 2.05335e-15
v 47.5687 88.9445 -6.09472
vt -1.7302 3.4517
vt -1.7302 2.93394
f 24/52/8 35/53/8 34/54/8

vt -6.57896e-15 3.4517
f 35/53/8 24/52/8 25/55/8

vt -0.345154 7.10543e-15
vt -5.44701 1.7302
vt -5.44701 1.77636e-14
f 30/56/2 35/57/2 25/58/2

vt -0.345154 1.7302
f 35/57/2 30/56/2 31/59/2

vt -0.345154 3.4517
vn -8.80332e-17 -1.4323e-15 -1
v 34.61 90.2596 -6.09472
vt -0.345154 3.96945
vt -5.44701 3.4517
f 31/60/9 36/61/9 35/62/9

v 31.7333 94.4514 -6.09472
vt 0.787402 5.61977
f 31/60/9 37/63/9 36/61/9

vt -0.345154 2.93394
f 32/64/9 37/63/9 31/60/9

v 34.61 86.3143 -6.09472
vt -0.345154 2.41618
f 38/65/9 37/63/9 32/64/9

v 34.61 84.9992 -6.09472
vt -0.345154 1.89843
f 39/66/9 37/63/9 38/65/9

v 34.61 83.6841 -6.09472
vt -0.345154 1.38067
f 40/67/9 37/63/9 39/66/9

v 34.61 82.369 -6.09472
vt -0.345154 0.862911
f 41/68/9 37/63/9 40/67/9

v 34.61 81.0539 -6.09472
vt -0.345154 0.345154
f 42/69/9 37/63/9 41/68/9

v 34.61 80.1772 -6.09472
vt -0.345154 2.47818e-15
f 43/70/9 37/63/9 42/69/9

v 34.61 78.1772 -6.09472
vt -0.345154 -0.787402
f 44/71/9 37/63/9 43/70/9

v 31.7333 78.1772 -6.09472
vt 0.787402 -0.787402
f 37/63/9 44/71/9 45/72/9

v 31.7333 78.1772 -4
vt 0.787402 0.905512
vt 0.787402 1.7302
f 44/59/2 46/73/2 45/74/2

v 34.61 78.1772 -4
f 46/73/2 44/59/2 47/13/2

v 50.4454 78.1772 -6.09472
vt -6.57956 1.7302
f 48/75/2 47/13/2 44/59/2

v 50.4454 78.1772 -4
vt -6.57956 0.905512
f 47/13/2 48/75/2 49/76/2

vt 1.7302 -0.787402
vn 1 -3.67596e-16 6.46188e-15
v 50.4454 94.4514 -4
vt 0.905512 5.61977
vt 0.905512 -0.787402
f 48/77/10 50/78/10 49/79/10

v 50.4454 94.4514 -6.09472
vt 1.7302 5.61977
f 50/78/10 48/77/10 51/80/10

vt -6.57956 -0.787402
v 47.5687 80.1772 -6.09472
vt -5.44701 2.47818e-15
vt -6.57956 5.61977
f 48/81/9 52/82/9 51/83/9

f 52/82/9 48/81/9 43/70/9

f 44/71/9 43/70/9 48/81/9

v 47.5687 80.1772 -4
vt 5.44701 0.905512
f 43/47/4 53/84/4 52/49/4

vt 0.345154 0.905512
f 53/84/4 43/47/4 12/85/4

vt 1.7302 0.345154
vn 1 0 -0
vt 0.905512 0
vt 1.7302 0
f 42/86/11 12/87/11 43/88/11

vt 0 0.345154
f 9/89/11 12/87/11 42/86/11

vt 0 0
f 12/87/11 9/89/11 11/90/11

v 47.5687 81.0539 -6.09472
vn 2.8727e-30 -1 4.1067e-15
vt -0.345154 -1.41744e-15
f 54/57/12 9/91/12 42/59/12

vt -5.44701 2.13527e-15
f 9/91/12 54/57/12 20/92/12

vt -1.7302 0.345154
vt -3.55271e-15 0.345154
f 54/93/3 19/18/3 20/94/3

f 19/18/3 54/93/3 53/17/3

vt -1.7302 0
f 53/17/3 54/93/3 52/95/3

vt -5.44701 0.345154
f 51/83/9 52/82/9 54/96/9

v 47.5687 82.369 -6.09472
vt -5.44701 0.862911
f 51/83/9 54/96/9 55/97/9

f 55/97/9 54/96/9 41/68/9

f 42/69/9 41/68/9 54/96/9

vn 0 1 -4.1067e-15
v 35.46 82.369 -1.7
vt 0.6798 8.99852e-18
f 41/47/13 56/98/13 55/49/13

vt 0.345154 8.99852e-18
f 56/98/13 41/47/13 8/99/13

v 34.61 83.6841 -2.85
vt 0.452756 1.38067
vn 1 -2.59158e-15 1.14639e-15
vt 3.94839e-15 0.862911
vt 1.7302 0.862911
f 57/100/14 8/101/14 41/102/14

vt 3.9568e-16 1.38067
f 8/101/14 57/100/14 7/103/14

vn -7.9418e-17 -1 1.85918e-14
vt -0.345154 -2.56691e-14
vt -0.345154 0.452756
f 40/59/15 7/104/15 57/105/15

vt -5.44701 -2.21163e-14
f 7/104/15 40/59/15 22/106/15

v 47.5687 83.6841 -6.09472
f 22/106/15 40/59/15 58/57/15

vt -5.44701 1.38067
f 40/67/9 39/66/9 58/107/9

v 47.5687 84.9992 -6.09472
vt -5.44701 1.89843
f 59/108/9 58/107/9 39/66/9

f 51/83/9 58/107/9 59/108/9

f 51/83/9 55/97/9 58/107/9

vt -9.14502e-15 0.862911
vn -1 3.43087e-15 -1.02667e-15
vt -1.7302 1.38067
vt -1.7302 0.862911
f 21/109/16 58/110/16 55/111/16

vt -9.14502e-15 1.38067
f 58/110/16 21/109/16 22/112/16

vt 5.44701 8.99852e-18
f 55/49/13 56/98/13 21/113/13

vt 0.6798 0.862911
f 8/8/1 21/32/1 56/114/1

f 8/8/1 9/9/1 21/32/1

f 20/31/1 21/32/1 9/9/1

v 47.5687 86.3143 -6.09472
vt -5.44701 2.41618
f 51/83/9 59/108/9 60/115/9

vt -9.14502e-15 1.89843
vn -1 -3.43087e-15 -1.02667e-15
vt -1.7302 2.41618
vt -1.7302 1.89843
f 23/116/17 60/117/17 59/118/17

vt -5.5923e-15 2.41618
f 60/117/17 23/116/17 1/119/17

vt -0.6798 -4.26891e-14
vn 1.41621e-15 -1 2.45604e-14
vt -5.44701 -5.93425e-14
f 3/120/18 60/57/18 1/121/18

vt -0.345154 -4.15789e-14
f 2/122/18 60/57/18 3/120/18

f 60/57/18 2/122/18 38/59/18

vt 2.16706e-14 1.89843
vn 1 3.43087e-15 1.02667e-15
vt 1.7302 2.41618
vt 1.81179e-14 2.41618
f 6/123/19 38/124/19 2/125/19

vt 1.7302 1.89843
f 38/124/19 6/123/19 39/126/19

vt 5.44701 -3.15305e-14
vn 6.42706e-29 1 -1.84801e-14
vt 0.345154 -1.37669e-14
f 23/127/20 39/47/20 6/128/20

f 39/47/20 23/127/20 59/49/20

f 6/6/1 7/7/1 23/34/1

f 22/33/1 23/34/1 7/7/1

f 38/65/9 32/64/9 60/115/9

vt -5.44701 2.93394
f 34/129/9 60/115/9 32/64/9

f 51/83/9 60/115/9 34/129/9

f 51/83/9 34/129/9 35/62/9

v 47.5687 90.2596 -6.09472
vt -5.44701 3.96945
f 51/83/9 35/62/9 61/130/9

f 61/130/9 35/62/9 36/61/9

vt 0.345154 7.10543e-15
f 29/131/4 61/49/4 36/47/4

v 34.8624 90.2596 -1.7
vt 0.444536 7.32747e-15
f 61/49/4 29/131/4 62/132/4

vt 0.444536 3.96945
f 29/40/1 26/37/1 62/133/1

f 29/40/1 30/41/1 26/37/1

f 25/36/1 26/37/1 30/41/1

vt 5.44701 1.77636e-14
f 61/49/4 62/132/4 26/134/4

vt -6.57896e-15 3.96945
vn -1 6.86174e-15 2.05335e-15
v 47.5687 91.5747 -6.09472
vt -1.7302 4.48721
vt -1.7302 3.96945
f 26/135/21 63/136/21 61/137/21

vt -6.57896e-15 4.48721
f 63/136/21 26/135/21 27/138/21

vt -0.345154 -2.27696e-15
vn 4.36808e-30 -1 2.09092e-15
vt -5.44701 8.38118e-15
f 28/139/22 63/57/22 27/140/22

v 34.61 91.5747 -6.09472
f 63/57/22 28/139/22 64/59/22

vt 6.39671e-15 4.48721
vn 1 -6.86174e-15 -2.05335e-15
vt 1.7302 3.96945
vt 1.7302 4.48721
f 28/141/23 36/142/23 64/143/23

vt 6.39671e-15 3.96945
f 36/142/23 28/141/23 29/144/23

vt -0.345154 4.48721
f 36/61/9 37/63/9 64/145/9

vt -5.44701 4.48721
f 64/145/9 37/63/9 63/146/9

f 51/83/9 63/146/9 37/63/9

f 51/83/9 61/130/9 63/146/9

vt -0.787402 1.7302
vt 6.57956 0.905512
vt 6.57956 1.7302
f 37/147/4 50/148/4 51/149/4

v 31.7333 94.4514 -4
vt -0.787402 0.905512
f 50/148/4 37/147/4 65/150/4

vt -1.7302 -0.787402
vt -0.905512 5.61977
vt -1.7302 5.61977
f 45/151/3 65/152/3 37/153/3

vt -0.905512 -0.787402
f 65/152/3 45/151/3 46/154/3

vt -0.787402 -0.787402
vn 5.00109e-16 1.54536e-15 1
vt 0.0590551 1.39934e-15
vt -0.787402 5.61977
f 46/155/24 13/156/24 65/157/24

vt 5.73311 1.39934e-15
f 13/156/24 46/155/24 17/158/24

vt 0.345154 -0.787402
f 47/159/24 17/158/24 46/155/24

vt 6.57956 -0.787402
f 49/160/24 17/158/24 47/159/24

vt 6.57956 5.61977
f 17/158/24 49/160/24 50/161/24

f 17/158/24 50/161/24 16/28/24

f 16/28/24 50/161/24 14/5/24

f 65/157/24 14/5/24 50/161/24

f 65/157/24 13/156/24 14/5/24

vt 5.44701 1.39934e-15
f 13/156/24 17/158/24 53/162/24

vt -5.73311 0.905512
vt -5.44701 3.55271e-15
vt -5.44701 0.905512
f 17/163/2 19/164/2 53/165/2

vt -5.73311 3.33067e-15
f 19/164/2 17/163/2 18/166/2

vt 0.345154 1.39934e-15
f 13/156/24 53/162/24 12/167/24

vt 1.7302 1.38067
f 57/100/14 41/102/14 40/168/14

