# Alias OBJ Model File
# Exported from SketchUp, (c) 2000-2012 Trimble Navigation Limited
# File units = centimeters

mtllib knob spacer.mtl

g Mesh1 Group1 Model

usemtl FrontColor
v -125.18 7.33191e-15 -317.995
vt 5.25355 2.86622e-15
vn 0.986042 4.23709e-18 -0.166497
v -124.892 2.65 -317.059
vt 4.86791 1.04331
vn 0.909351 1.5573e-17 -0.41603
v -124.892 9.58789e-15 -317.059
vt 4.86791 3.7544e-15
f 1/1/1 2/2/2 3/3/2

v -125.18 2.65 -317.995
vt 5.25355 1.04331
f 2/2/2 1/1/1 4/4/1

v -125.215 5.07594e-15 -318.974
vt 6.10585 1.99815e-15
vn 0.999338 2.40294e-19 -0.036368
vt 5.72021 1.04331
vt 5.72021 2.88633e-15
f 5/5/3 4/6/1 1/7/1

v -125.215 2.65 -318.974
vt 6.10585 1.04331
f 4/6/1 5/5/3 6/8/3

v -124.996 2.81997e-15 -319.928
vt 6.55519 1.11008e-15
vn 0.937186 -1.02339e-17 0.348831
vt 6.16955 1.04331
vn 0.9747 -2.4436e-19 0.223519
vt 6.16955 1.99826e-15
f 7/9/4 6/10/5 5/11/5

v -124.996 2.65 -319.928
vt 6.55519 1.04331
f 6/10/5 7/9/4 8/12/4

v -124.538 0 -320.794
vt 6.57094 -4.49774e-17
vn 0.814968 -2.21335e-17 0.579506
vt 6.1853 1.04331
vt 6.1853 1.06525e-15
f 9/13/6 8/14/4 7/15/4

v -124.538 2.65 -320.794
vt 6.57094 1.04331
f 8/14/4 9/13/6 10/16/6

v -123.871 1.69198e-14 -321.511
vt 6.15203 6.56913e-15
vn 0.637211 -1.48081e-17 0.770689
vt 5.76639 1.04331
vt 5.76639 -9.22058e-17
f 11/17/7 10/18/6 9/19/6

v -123.871 2.65 -321.511
vt 6.15203 1.04331
f 10/18/6 11/17/7 12/20/7

vt 4.94137 6.63191e-15
v -123.041 2.65 -322.032
vt 5.32701 1.04331
vn 0.41603 2.83444e-19 0.909351
vt 4.94137 1.04331
f 11/21/7 13/22/8 12/23/7

v -123.041 1.52278e-14 -322.032
vt 5.32701 5.96578e-15
f 13/22/8 11/21/7 14/24/8

vt -1.35654 7.13907
vn 1.91659e-16 -1 -6.30879e-17
v -130.312 1.48514e-14 -326.55
vt 1.1795 9.1227
vt -1.68328 7.3439
f 11/25/9 15/26/9 14/27/9

vt -1.09395 6.85664
f 9/28/9 15/26/9 11/25/9

v -130.312 1.48514e-14 -310.689
vt 1.1795 2.87844
f 15/26/9 9/28/9 16/29/9

vt -0.913399 6.51588
f 16/29/9 9/28/9 7/30/9

vt -0.827202 6.14
f 16/29/9 7/30/9 5/31/9

vt -0.841227 5.75461
f 1/32/9 16/29/9 5/31/9

vt -0.954518 5.38599
f 3/33/9 16/29/9 1/32/9

v -124.372 1.07159e-14 -316.229
vt -1.15936 5.05925
f 17/34/9 16/29/9 3/33/9

v -123.654 1.24079e-14 -315.562
vt -1.44178 4.79666
f 18/35/9 16/29/9 17/34/9

v -122.789 1.29718e-14 -315.103
vt -1.78255 4.61611
f 19/36/9 16/29/9 18/35/9

v -112.742 1.68659e-14 -310.689
vt -5.73782 2.87844
f 16/29/9 19/36/9 20/37/9

v -121.834 1.40998e-14 -314.884
vt -2.15843 4.52992
f 20/37/9 19/36/9 21/38/9

v -122.789 2.65 -315.103
vt -0.705657 1.04331
vn 0.348831 1.05239e-17 -0.937186
vt -1.0913 5.55171e-15
vn 0.094383 -1.28974e-18 -0.995536
vt -0.705657 5.10762e-15
f 22/39/10 21/40/11 19/41/10

v -121.834 2.65 -314.884
vt -1.0913 1.04331
f 21/40/11 22/39/10 23/42/11

vt 1.78255 4.61611
vn -6.87827e-17 1 8.18217e-17
v -114.742 2.65 -312.689
vt 4.95042 3.66584
vt 2.15843 4.52992
f 22/43/12 24/44/12 23/45/12

v -127.812 2.65 -312.689
vt -0.195249 3.66584
f 22/43/12 25/46/12 24/44/12

v -123.654 2.65 -315.562
vt 1.44178 4.79666
f 26/47/12 25/46/12 22/43/12

v -124.372 2.65 -316.229
vt 1.15936 5.05925
f 27/48/12 25/46/12 26/47/12

vt 0.954518 5.38599
f 2/49/12 25/46/12 27/48/12

v -127.812 2.65 -324.55
vt -0.195249 8.3353
f 25/46/12 2/49/12 28/50/12

vt 0.841227 5.75461
f 28/50/12 2/49/12 4/51/12

vt 0.827202 6.14
f 28/50/12 4/51/12 6/52/12

vt 0.913399 6.51588
f 8/53/12 28/50/12 6/52/12

vt 1.09395 6.85664
f 10/54/12 28/50/12 8/53/12

vt 1.35654 7.13907
f 12/55/12 28/50/12 10/54/12

vt 1.68328 7.3439
f 13/56/12 28/50/12 12/55/12

v -122.105 2.65 -322.319
vt 2.0519 7.4572
f 29/57/12 28/50/12 13/56/12

v -114.742 2.65 -324.55
vt 4.95042 8.3353
f 28/50/12 29/57/12 30/58/12

v -121.126 2.65 -322.355
vt 2.43728 7.47122
f 30/58/12 29/57/12 31/59/12

v -122.105 1.46638e-14 -322.319
vt 2.32174 5.77296e-15
vn 0.166497 3.05515e-18 0.986042
vt 2.70738 1.04331
vn -0.094383 -1.14763e-17 0.995536
vt 2.32174 1.04331
f 32/60/13 31/61/14 29/62/13

v -121.126 1.40998e-14 -322.355
vt 2.70738 5.55092e-15
f 31/61/14 32/60/13 33/63/14

vt -2.0519 7.4572
v -115.742 1.8369e-14 -326.55
vt -4.55672 9.1227
vt -2.43728 7.47122
f 32/64/9 34/65/9 33/66/9

f 14/27/9 34/65/9 32/64/9

f 14/27/9 15/26/9 34/65/9

v -130.312 5.65 -326.55
vt 1.1795 2.22441
vn 2.07851e-15 -2.63667e-16 -1
vt -4.55672 9.63725e-15
vt 1.1795 8.25236e-15
f 35/67/15 34/68/15 15/69/15

v -115.742 5.65 -326.55
vt -4.55672 2.22441
f 34/68/15 35/67/15 36/70/15

vt -1.1795 9.1227
vn 8.94211e-17 1 1.05247e-16
v -127.812 5.65 -324.55
vt 4.55672 9.1227
f 35/71/16 37/50/16 36/72/16

v -127.812 5.65 -324.05
vt -0.195249 8.13845
f 35/71/16 38/73/16 37/50/16

v -130.312 5.65 -324.05
vt -1.1795 8.13845
f 38/73/16 35/71/16 39/74/16

vt -9.1227 5.847e-15
vn -1 0 -0
vt -8.13845 2.22441
vt -9.1227 2.22441
f 15/75/17 39/76/17 35/77/17

v -130.312 5.65 -313.189
vt -3.86269 2.22441
f 15/75/17 40/78/17 39/76/17

vt -2.87844 5.847e-15
f 16/79/17 40/78/17 15/75/17

v -130.312 5.65 -310.689
vt -2.87844 2.22441
f 40/78/17 16/79/17 41/80/17

vt 5.73782 6.64012e-15
vn 0 0 1
vt -1.1795 2.22441
vt -1.1795 5.847e-15
f 20/81/18 41/82/18 16/83/18

v -112.742 5.65 -310.689
vt 5.73782 2.22441
f 41/82/18 20/81/18 42/84/18

v -112.742 1.7317e-14 -313.689
vt 4.05954 6.81772e-15
vn 1 0 -0
vt 2.87844 2.22441
vt 2.87844 6.64012e-15
f 43/85/19 42/86/19 20/87/19

v -112.742 5.65 -313.689
vt 4.05954 2.22441
f 42/86/19 43/85/19 44/88/19

v -112.742 1.80857e-14 -326.55
vt 9.1227 7.12035e-15
f 45/89/19 44/88/19 43/85/19

v -112.742 5.65 -326.55
vt 9.1227 2.22441
f 44/88/19 45/89/19 46/90/19

vn 1.60476e-14 -2.63667e-16 -1
vt -5.73782 2.22441
vt -5.73782 9.52571e-15
f 34/68/20 46/91/20 45/92/20

f 46/91/20 34/68/20 36/70/20

v -114.742 5.65 -324.55
vt 5.73782 9.1227
f 36/72/16 47/58/16 46/93/16

f 36/72/16 37/50/16 47/58/16

vt -0.195249 2.22441
vn -9.07121e-15 4.37136e-16 1
vt 4.95042 1.04331
vt 4.95042 2.22441
f 37/94/21 30/95/21 47/96/21

vt -0.195249 1.04331
f 30/95/21 37/94/21 28/97/21

vt 8.13845 2.22441
vt 8.3353 1.04331
vt 8.3353 2.22441
f 38/98/19 28/99/19 37/100/19

v -127.812 5.65 -313.189
vt 3.86269 2.22441
f 48/101/19 28/99/19 38/98/19

v -127.812 5.65 -312.689
vt 3.66584 2.22441
f 49/102/19 28/99/19 48/101/19

vt 3.66584 1.04331
f 28/99/19 49/102/19 25/103/19

vt 0.195249 2.22441
vn 0 0 -1
vt -4.95042 1.04331
vt 0.195249 1.04331
f 49/104/22 24/105/22 25/106/22

v -114.742 5.65 -312.689
vt -4.95042 2.22441
f 24/105/22 49/104/22 50/107/22

vt 5.73782 2.87844
f 49/46/16 42/108/16 50/44/16

vt -1.1795 2.87844
f 49/46/16 41/109/16 42/108/16

vt -1.1795 3.86269
f 41/109/16 49/46/16 40/110/16

vt -0.195249 3.86269
f 48/111/16 40/110/16 49/46/16

vn 1.31598e-15 1 5.19311e-17
f 48/111/23 39/74/23 40/110/23

f 39/74/23 48/111/23 38/73/23

f 50/44/16 42/108/16 47/58/16

f 46/93/16 47/58/16 42/108/16

vt 5.73782 4.05954
f 46/93/16 42/108/16 44/112/16

vt -8.3353 2.22441
vt -3.66584 1.04331
vt -3.66584 2.22441
f 47/113/17 24/114/17 50/115/17

vt -8.3353 1.04331
f 24/114/17 47/113/17 30/116/17

v -117.744 2.65 -318.265
vt 3.76851 5.86114
f 30/58/12 51/117/12 24/44/12

v -117.78 2.65 -319.244
vt 3.75448 6.24653
f 30/58/12 52/118/12 51/117/12

v -118.068 2.65 -320.181
vt 3.64119 6.61515
f 30/58/12 53/119/12 52/118/12

v -118.588 2.65 -321.011
vt 3.43635 6.94189
f 30/58/12 54/120/12 53/119/12

v -119.305 2.65 -321.677
vt 3.15393 7.20448
f 30/58/12 55/121/12 54/120/12

v -120.171 2.65 -322.136
vt 2.81316 7.38502
f 30/58/12 56/122/12 55/121/12

f 30/58/12 31/59/12 56/122/12

vt 0.705657 1.04331
v -120.171 3.27116e-14 -322.136
vt 1.0913 1.27007e-14
vn -0.348831 -2.20483e-17 0.937186
vt 1.0913 1.04331
f 31/123/14 57/124/24 56/125/24

vt 0.705657 5.37321e-15
f 57/124/24 31/123/14 33/126/14

vt -2.81316 7.38502
f 33/66/9 34/65/9 57/127/9

v -119.305 3.32756e-14 -321.677
vt -3.15393 7.20448
f 57/127/9 34/65/9 58/128/9

v -118.588 3.44036e-14 -321.011
vt -3.43635 6.94189
f 58/128/9 34/65/9 59/129/9

v -118.068 3.66596e-14 -320.181
vt -3.64119 6.61515
f 59/129/9 34/65/9 60/130/9

v -117.78 3.83515e-14 -319.244
vt -3.75448 6.24653
f 60/130/9 34/65/9 61/131/9

v -117.744 2.31237e-14 -318.265
vt -3.76851 5.86114
f 61/131/9 34/65/9 62/132/9

f 20/37/9 62/132/9 34/65/9

v -117.963 2.53797e-14 -317.311
vt -3.68231 5.48526
f 20/37/9 63/133/9 62/132/9

v -118.422 2.70717e-14 -316.445
vt -3.50176 5.14449
f 20/37/9 64/134/9 63/133/9

v -119.089 2.93277e-14 -315.728
vt -3.23917 4.86207
f 20/37/9 65/135/9 64/134/9

v -119.919 1.29718e-14 -315.207
vt -2.91243 4.65723
f 20/37/9 66/136/9 65/135/9

v -120.855 1.35358e-14 -314.92
vt -2.54381 4.54394
f 20/37/9 67/137/9 66/136/9

f 20/37/9 21/38/9 67/137/9

vt -2.32174 5.56195e-15
v -120.855 2.65 -314.92
vt -2.70738 1.04331
vn -0.166497 3.86211e-18 -0.986042
vt -2.70738 5.3399e-15
f 21/138/11 68/139/25 67/140/25

vt -2.32174 1.04331
f 68/139/25 21/138/11 23/141/11

vt 2.54381 4.54394
f 23/45/12 24/44/12 68/142/12

v -119.919 2.65 -315.207
vt 2.91243 4.65723
f 68/142/12 24/44/12 69/143/12

v -119.089 2.65 -315.728
vt 3.23917 4.86207
f 69/143/12 24/44/12 70/144/12

v -118.422 2.65 -316.445
vt 3.50176 5.14449
f 70/144/12 24/44/12 71/145/12

v -117.963 2.65 -317.311
vt 3.68231 5.48526
f 71/145/12 24/44/12 72/146/12

f 72/146/12 24/44/12 51/117/12

vt -6.55519 1.04331
vn -0.9747 2.4436e-19 -0.223519
vt -6.16955 9.99258e-15
vn -0.937186 3.35708e-19 -0.348831
vt -6.16955 1.04331
f 51/147/26 63/148/27 72/149/27

vt -6.55519 9.10441e-15
f 63/148/27 51/147/26 62/150/26

vt -6.10585 1.04331
vn -0.986042 -5.36235e-19 0.166497
vt -5.72021 9.10786e-15
vn -0.999338 1.01318e-18 0.036368
vt -5.72021 1.04331
f 52/151/28 62/152/29 51/153/29

vt -6.10585 1.51031e-14
f 62/152/29 52/151/28 61/154/28

vt -5.25355 1.04331
vn -0.909351 -5.82614e-18 0.41603
vt -4.86791 1.50878e-14
vt -4.86791 1.04331
f 53/155/30 61/156/28 52/157/28

vt -5.25355 1.44216e-14
f 61/156/28 53/155/30 60/158/30

vt -4.05637 1.04331
vn -0.770689 -8.0809e-18 0.637211
vt -3.67073 1.43704e-14
vt -3.67073 1.04331
f 54/159/31 60/160/30 53/161/30

vt -4.05637 1.34822e-14
f 60/160/30 54/159/31 59/162/31

vt -2.5959 1.04331
vn -0.579506 -1.38875e-17 0.814968
vt -2.21026 1.34961e-14
vt -2.21026 1.04331
f 55/163/32 59/164/31 54/165/31

vt -2.5959 1.3052e-14
f 59/164/31 55/163/32 58/166/32

vt -0.971659 1.04331
vt -0.58602 1.2936e-14
vt -0.58602 1.04331
f 56/167/24 58/168/32 55/169/32

vt -0.971659 1.2714e-14
f 58/168/32 56/167/24 57/170/24

vt -6.1853 1.06584e-14
vn -0.814968 6.11072e-18 -0.579506
vt -6.57094 1.04331
vt -6.57094 9.9923e-15
f 64/171/33 72/172/27 63/173/27

vt -6.1853 1.04331
f 72/172/27 64/171/33 71/174/33

vt -5.76639 1.15353e-14
vn -0.637211 -3.81924e-18 -0.770689
vt -6.15203 1.04331
vt -6.15203 1.06472e-14
f 65/175/34 71/176/33 64/177/33

vt -5.76639 1.04331
f 71/176/33 65/175/34 70/178/34

vt -5.32701 1.15925e-14
vt -4.94137 1.04331
vn -0.41603 -4.62725e-18 -0.909351
vt -5.32701 1.04331
f 65/179/34 69/180/35 70/181/34

vt -4.94137 5.15325e-15
f 69/180/35 65/179/34 66/182/35

vt -3.76647 5.29277e-15
vt -4.15211 1.04331
vt -4.15211 5.07073e-15
f 67/183/25 69/184/35 66/185/35

vt -3.76647 1.04331
f 69/184/35 67/183/25 68/186/25

vt -5.73782 9.1227
f 20/37/9 34/65/9 45/187/9

vt -5.73782 4.05954
f 20/37/9 45/187/9 43/188/9

vt 4.15211 1.04331
vt 3.76647 6.03491e-15
vt 4.15211 5.81287e-15
f 29/189/13 14/190/8 32/191/13

vt 3.76647 1.04331
f 14/190/8 29/189/13 13/192/8

vt 3.67073 1.04331
vn 0.770689 -1.46522e-18 -0.637211
vt 4.05637 3.69139e-15
vt 4.05637 1.04331
f 27/193/36 3/194/2 2/195/2

vt 3.67073 4.13548e-15
f 3/194/2 27/193/36 17/196/36

vt 2.5959 1.04331
vt 2.21026 5.00015e-15
vn 0.579506 -2.33676e-18 -0.814968
vt 2.5959 4.33401e-15
f 27/197/36 18/198/37 17/199/36

vt 2.21026 1.04331
f 18/198/37 27/197/36 26/200/37

vt 0.971659 1.04331
vt 0.58602 5.00389e-15
vt 0.971659 4.78185e-15
f 26/201/37 19/202/10 18/203/37

vt 0.58602 1.04331
f 19/202/10 26/201/37 22/204/10

