# Alias OBJ Model File
# Exported from SketchUp, (c) 2000-2012 Trimble Navigation Limited
# File units = centimeters

mtllib wire brace.mtl

g Mesh1 Group1 Model

usemtl FrontColor
v 123.182 -7.81 -273.41
vt 30.0124 0.984252
vn 1 0 -0
v 123.182 -2.31 -285.41
vt 34.7368 3.14961
v 123.182 -2.31 -273.41
vt 30.0124 3.14961
f 1/1/1 2/2/1 3/3/1

v 123.182 -7.81 -285.41
vt 34.7368 0.984252
f 2/2/1 1/1/1 4/4/1

v 118.766 -7.81 -273.41
vt -38.9959 30.0124
vn -1.27742e-16 -1 6.17225e-34
vt -40.7341 34.7368
vt -40.7341 30.0124
f 5/5/2 4/6/2 1/7/2

v 118.766 -7.81 -285.41
vt -38.9959 34.7368
f 4/6/2 5/5/2 6/8/2

vt -30.0124 0.984252
vn -1 0 -0
v 118.766 -6.81 -285.41
vt -34.7368 1.37795
vt -34.7368 0.984252
f 5/9/3 7/10/3 6/11/3

v 118.766 -6.81 -273.41
vt -30.0124 1.37795
f 7/10/3 5/9/3 8/12/3

vt 38.9959 0.984243
vn 7.77787e-09 -3.128e-07 1
v 121.21 -5.31 -273.41
vt 39.9577 1.96849
vt 38.9959 1.37794
f 5/13/4 9/14/4 8/15/4

vt 40.7341 0.984243
f 1/16/4 9/14/4 5/13/4

vt 40.7341 3.1496
f 9/14/4 1/16/4 3/17/4

v 121.21 -2.31 -273.41
vt 39.9577 3.1496
f 9/14/4 3/17/4 10/18/4

vt 40.7341 30.0124
vn -1.31627e-09 1 7.21033e-11
v 121.21 -2.31 -285.41
vt 39.9577 34.7368
vt 39.9577 30.0124
f 3/19/5 11/20/5 10/21/5

vt 40.7341 34.7368
f 11/20/5 3/19/5 2/22/5

vt -40.7338 3.14961
vn 8.92441e-06 3.51732e-11 -1
v 121.21 -5.31 -285.41
vt -39.9574 1.9685
vt -39.9574 3.14961
f 2/23/6 12/24/6 11/25/6

vt -40.7338 0.984252
f 4/26/6 12/24/6 2/23/6

vt -38.9956 1.37795
f 4/26/6 7/27/6 12/24/6

vt -38.9956 0.984252
f 7/27/6 4/26/6 6/28/6

v 114.766 -6.81 -285.41
vt -37.4208 1.37795
f 12/24/6 7/27/6 13/29/6

v 117.766 -6.81 -285.41
vt -38.6019 1.37795
f 14/30/6 13/29/6 7/27/6

v 117.766 -7.81 -285.41
vt -38.6019 0.984252
f 15/31/6 13/29/6 14/30/6

v 114.766 -7.81 -285.41
vt -37.4208 0.984252
f 13/29/6 15/31/6 16/32/6

v 117.766 -7.81 -273.41
vt -38.6022 30.0124
vn 0 -1 -0
vt -37.4211 34.7368
vt -38.6022 34.7368
f 17/33/7 16/34/7 15/35/7

v 114.766 -7.81 -273.41
vt -37.4211 30.0124
f 16/34/7 17/33/7 18/36/7

v 117.766 -6.81 -273.41
vt 38.6022 1.37794
vt 37.4211 0.984243
vt 38.6022 0.984243
f 19/37/4 18/38/4 17/39/4

v 114.766 -6.81 -273.41
vt 37.4211 1.37794
f 18/38/4 19/37/4 20/40/4

f 19/37/4 9/14/4 20/40/4

f 8/15/4 9/14/4 19/37/4

f 19/33/7 7/8/7 8/5/7

f 7/8/7 19/33/7 14/35/7

vt 30.0124 1.37795
vt 34.7368 1.37795
f 19/41/1 15/4/1 14/42/1

f 15/4/1 19/41/1 17/1/1

v 113.766 -6.81 -273.41
vt 37.0274 1.37794
f 20/40/4 9/14/4 21/43/4

v 110.766 -6.81 -273.41
vt 35.8463 1.37794
f 21/43/4 9/14/4 22/44/4

v 109.767 -6.81 -273.41
vt 35.4526 1.37794
f 22/44/4 9/14/4 23/45/4

v 39.5878 -5.31 -273.41
vt 7.82319 1.96849
f 23/45/4 9/14/4 24/46/4

vn -3.06009e-10 1 3.81032e-09
vt 7.82319 30.0124
f 12/20/8 24/47/8 9/21/8

v 25.6162 -5.31 -285.41
vt 2.32257 34.7371
f 25/48/8 24/47/8 12/20/8

v 25.6162 -5.31 -273.41
vt 2.32257 30.0124
f 24/47/8 25/48/8 26/49/8

vt 34.7371 1.9685
vn 1 -1.70535e-11 -0
v 25.6162 -2.31 -273.41
vt 30.0124 1.9685
f 25/50/9 27/3/9 26/51/9

v 25.6162 -2.31 -285.41
vt 34.7371 3.14961
f 27/3/9 25/50/9 28/52/9

vt -2.32226 1.9685
v 19.7358 -2.31 -285.411
vt -0.0071443 3.14961
vt -2.32226 3.14961
f 25/53/6 29/54/6 28/55/6

v 19.7358 -7.81 -285.411
vt -0.0071443 0.984252
f 25/53/6 30/56/6 29/54/6

v 109.767 -7.81 -285.41
vt -35.4523 0.984252
f 30/56/6 25/53/6 31/57/6

v 109.767 -6.81 -285.41
vt -35.4523 1.37795
f 31/57/6 25/53/6 32/58/6

v 110.767 -6.81 -285.41
vt -35.846 1.37795
f 32/58/6 25/53/6 33/59/6

f 33/59/6 25/53/6 12/24/6

f 12/24/6 13/29/6 33/59/6

v 113.766 -6.81 -285.41
vt -37.0271 1.37795
f 34/60/6 33/59/6 13/29/6

v 110.767 -7.81 -285.41
vt -35.846 0.984252
f 34/60/6 35/61/6 33/59/6

v 113.766 -7.81 -285.41
vt -37.0271 0.984252
f 35/61/6 34/60/6 36/62/6

f 21/41/1 36/4/1 34/42/1

v 113.766 -7.81 -273.41
f 36/4/1 21/41/1 37/1/1

v 110.766 -7.81 -273.41
vt 35.8463 0.984243
vt 37.0274 0.984243
f 21/43/4 38/63/4 37/64/4

f 38/63/4 21/43/4 22/44/4

vt -34.7372 1.37795
vn -1 1.49458e-14 -8.92441e-06
vt -30.0127 0.984252
vt -30.0127 1.37795
f 33/65/10 38/66/10 22/67/10

vt -34.7372 0.984252
f 38/66/10 33/65/10 35/68/10

vt -35.8463 34.7368
vn -1.05279e-14 -1 -2.632e-15
vt -37.0274 30.0124
vt -35.8463 30.0124
f 35/69/11 37/70/11 38/71/11

vt -37.0274 34.7368
f 37/70/11 35/69/11 36/72/11

vt -35.4526 30.0124
vn -1.49457e-14 -1 -3.92448e-15
f 23/73/12 33/69/12 22/71/12

vt -35.4526 34.7368
f 33/69/12 23/73/12 32/74/12

vn 1 -1.49457e-14 -3.86339e-29
f 23/41/13 31/4/13 32/42/13

v 109.767 -7.81 -273.41
f 31/4/13 23/41/13 39/1/13

vt 35.4526 0.984243
f 24/46/4 39/75/4 23/45/4

v 39.5878 -7.81 -273.41
vt 7.82319 0.984243
f 39/75/4 24/46/4 40/76/4

vt 7.82319 1.9685
vn 0 0 1
v 19.7358 -7.81 -273.41
vt 0.00745431 0.984252
vt 7.82319 0.984252
f 24/77/14 41/78/14 40/79/14

vt 2.32257 1.9685
f 41/78/14 24/77/14 26/80/14

v 19.7358 -2.31 -273.41
vt 0.00745431 3.14961
f 41/78/14 26/80/14 42/81/14

vt 2.32257 3.14961
f 42/81/14 26/80/14 27/82/14

vn 1.70535e-11 1 -1.70206e-28
vt 0.00745431 34.7372
vt 0.00745431 30.0124
f 27/49/15 29/83/15 42/84/15

f 29/83/15 27/49/15 28/48/15

vt -34.7372 3.14961
vt -30.0124 3.14961
f 29/85/3 41/9/3 42/86/3

f 41/9/3 29/85/3 30/68/3

vn 3.63758e-16 -1 -1.50812e-15
vt -0.00745431 30.0124
vt -0.00745431 34.7372
f 31/74/16 41/87/16 30/88/16

vt -7.82319 30.0124
f 41/87/16 31/74/16 40/89/16

f 40/89/16 31/74/16 39/73/16

f 13/34/7 21/70/7 34/72/7

f 21/70/7 13/34/7 20/36/7

vn -1 0 -1.50397e-15
f 13/10/17 18/9/17 20/12/17

f 18/9/17 13/10/17 16/11/17

vt -30.0124 1.9685
vn -1 -1.31628e-09 -1.89816e-19
vt -34.7368 3.14961
vt -34.7368 1.9685
f 9/90/18 11/91/18 12/92/18

f 11/91/18 9/90/18 10/86/18

