# Alias OBJ Model File
# Exported from SketchUp, (c) 2000-2012 Trimble Navigation Limited
# File units = centimeters

mtllib knob fill.mtl

g Mesh1 Group1 Model

usemtl FrontColor
v 42.915 12.5512 -329.611
vt -4.31998 0.984252
vn -0.397148 9.27055e-19 -0.917755
v 43.9843 10.0512 -329.996
vt -4.76741 8.96066e-16
vn -0.278991 -3.68687e-18 -0.960294
v 42.915 10.0512 -329.611
vt -4.31998 8.96066e-16
f 1/1/1 2/2/2 3/3/1

v 43.9843 12.5512 -329.996
vt -4.76741 0.984252
f 2/2/2 1/1/1 4/4/2

vt 2.1321 6.83103
vn 3.41002e-17 1 -1.37463e-17
v 44.2987 12.5512 -321.967
vt 2.67686 3.82175
vt 2.55308 6.98259
f 1/5/3 5/6/3 4/7/3

v 41.9024 12.5512 -329.095
vt 1.73343 6.6279
f 6/8/3 5/6/3 1/5/3

v 40.9624 12.5512 -328.456
vt 1.36337 6.37641
f 7/9/3 5/6/3 6/8/3

v 40.1099 12.5512 -327.704
vt 1.02774 6.08051
f 8/10/3 5/6/3 7/9/3

v 39.3584 12.5512 -326.852
vt 0.731847 5.74489
f 9/11/3 5/6/3 8/10/3

v 38.7196 12.5512 -325.912
vt 0.480351 5.37482
f 10/12/3 5/6/3 9/11/3

v 38.2036 12.5512 -324.899
vt 0.277221 4.97616
f 11/13/3 5/6/3 10/12/3

v 37.8187 12.5512 -323.83
vt 0.125658 4.55517
f 12/14/3 5/6/3 11/13/3

v 37.5707 12.5512 -322.721
vt 0.028053 4.11852
f 13/15/3 5/6/3 12/14/3

v 37.4995 12.5512 -321.967
vt -3.35632e-17 3.82175
f 5/6/3 13/15/3 14/16/3

vt -4.10288 0.984252
vn -0.987688 3.153e-17 -0.156434
v 37.4995 10.0512 -321.967
vt -3.80478 1.76461e-15
vn -0.995562 3.26552e-17 -0.0941083
vt -3.80478 0.984252
f 13/17/4 15/18/5 14/19/5

v 37.5707 10.0512 -322.721
vt -4.10288 1.76461e-15
f 15/18/5 13/17/4 16/20/4

vt -4.47288 0.984252
vn -0.960294 2.89111e-17 -0.278991
vt -4.02545 1.74998e-15
vt -4.02545 0.984252
f 12/21/6 16/22/4 13/23/4

v 37.8187 10.0512 -323.83
vt -4.47288 1.74998e-15
f 16/22/4 12/21/6 17/24/6

vt -4.77587 0.984252
vn -0.917755 2.58363e-17 -0.397148
vt -4.32844 1.73728e-15
vt -4.32844 0.984252
f 11/25/7 17/26/6 12/27/6

v 38.2036 10.0512 -324.899
vt -4.77587 1.73728e-15
f 17/26/6 11/25/7 18/28/7

vt -5.00708 0.984252
vn -0.860742 2.2354e-17 -0.509041
vt -4.55964 1.72778e-15
vt -4.55964 0.984252
f 10/29/8 18/30/7 11/31/7

v 38.7196 10.0512 -325.912
vt -5.00708 1.72778e-15
f 18/30/7 10/29/8 19/32/8

vt -5.16284 0.984252
vn -0.790155 1.85192e-17 -0.612907
vt -4.71541 1.72263e-15
vt -4.71541 0.984252
f 9/33/9 19/34/8 10/35/8

v 39.3584 10.0512 -326.852
vt -5.16284 1.72263e-15
f 19/34/8 9/33/9 20/36/9

vt -5.24072 0.984252
vn -0.707107 1.43923e-17 -0.707107
vt -4.79328 1.72277e-15
vt -4.79328 0.984252
f 8/37/10 20/38/9 9/39/9

v 40.1099 10.0512 -327.704
vt -5.24072 1.72277e-15
f 20/38/9 8/37/10 21/40/10

vt -4.79203 0.984252
v 40.9624 10.0512 -328.456
vt -5.23947 1.72885e-15
vn -0.612907 1.00385e-17 -0.790155
vt -4.79203 1.72885e-15
f 8/41/10 22/42/11 21/43/10

vt -5.23947 0.984252
f 22/42/11 8/41/10 7/44/11

vt -4.71168 0.984252
v 41.9024 10.0512 -329.095
vt -5.15912 1.74121e-15
vn -0.509041 5.52636e-18 -0.860742
vt -4.71168 1.74121e-15
f 7/45/11 23/46/12 22/47/11

vt -5.15912 0.984252
f 23/46/12 7/45/11 6/48/12

vt -5.00093 0.984252
vt -4.5535 1.75981e-15
vt -4.5535 0.984252
f 1/49/1 23/50/12 6/51/12

vt -5.00093 8.7163e-16
f 23/50/12 1/49/1 3/52/1

v 44.2987 10.0512 -321.967
vt -2.67686 3.82175
vn -3.41002e-17 -1 1.37463e-17
vt -1.73343 6.6279
vt -2.1321 6.83103
f 24/53/13 23/54/13 3/55/13

vt -1.36337 6.37641
f 24/53/13 22/56/13 23/54/13

vt -1.02774 6.08051
f 24/53/13 21/57/13 22/56/13

vt -0.731847 5.74489
f 24/53/13 20/58/13 21/57/13

vt -0.480351 5.37482
f 24/53/13 19/59/13 20/58/13

vt -0.277221 4.97616
f 24/53/13 18/60/13 19/59/13

vt -0.125658 4.55517
f 24/53/13 17/61/13 18/60/13

vt -0.028053 4.11852
f 24/53/13 16/62/13 17/61/13

vt 6.05741e-32 3.82175
f 16/62/13 24/53/13 15/63/13

vt 2.67686 0.984252
vn 4.56101e-33 1.37463e-17 1
vt 1.7431e-32 1.82889e-15
vt 2.67686 9.40713e-16
f 5/64/14 15/65/14 24/66/14

vt 1.7431e-32 0.984252
f 15/65/14 5/64/14 14/67/14

vt 2.15477 9.63015e-16
vn -0.130611 1.80824e-17 0.991434
v 44.4945 12.5512 -321.941
vt 2.23251 0.984252
vn -0.258894 2.2106e-17 0.965906
vt 2.15477 0.984252
f 24/68/15 25/69/16 5/70/15

v 44.4945 10.0512 -321.941
vt 2.23251 9.63015e-16
f 25/69/16 24/68/15 26/71/16

v 45.0934 10.0512 -330.244
vt -2.98974 7.0802
vt -2.75394 3.81159
f 24/53/13 27/72/13 26/73/13

vt -2.55308 6.98259
f 24/53/13 2/74/13 27/72/13

f 24/53/13 3/55/13 2/74/13

vt -4.0148 0.984252
vt -4.46223 9.25577e-16
vn -0.156434 -8.24265e-18 -0.987688
vt -4.0148 9.25577e-16
f 4/75/2 27/76/17 2/77/2

v 45.0934 12.5512 -330.244
vt -4.46223 0.984252
f 27/76/17 4/75/2 28/78/17

vt 2.98974 7.0802
f 4/7/3 5/6/3 28/79/3

vt 2.75394 3.81159
f 28/79/3 5/6/3 25/80/3

v 44.6769 12.5512 -321.866
vt 2.82576 3.78184
f 28/79/3 25/80/3 29/81/3

vt 1.08536 1.006e-15
vt 1.1631 0.984252
vn -0.500054 2.89562e-17 0.865994
vt 1.08536 0.984252
f 26/82/16 29/83/18 25/84/16

v 44.6769 10.0512 -321.866
vt 1.1631 1.006e-15
f 29/83/18 26/82/16 30/85/18

vt -2.82576 3.78184
f 26/73/13 27/72/13 30/86/13

v 44.8336 10.0512 -321.746
vt -2.88744 3.73451
f 30/86/13 27/72/13 31/87/13

v 44.9538 10.0512 -321.589
vt -2.93476 3.67283
f 31/87/13 27/72/13 32/88/13

v 45.0293 10.0512 -321.406
vt -2.96451 3.601
f 32/88/13 27/72/13 33/89/13

v 45.0551 10.0512 -321.211
vt -2.97466 3.52392
f 33/89/13 27/72/13 34/90/13

v 45.6575 10.0512 -312.296
vt -3.2118 0.0140542
f 35/91/13 34/90/13 27/72/13

v 45.0293 10.0512 -321.015
vt -2.96451 3.44685
f 35/91/13 36/92/13 34/90/13

v 44.9538 10.0512 -320.832
vt -2.93476 3.37502
f 35/91/13 37/93/13 36/92/13

v 44.8336 10.0512 -320.676
vt -2.88744 3.31334
f 35/91/13 38/94/13 37/93/13

v 44.6769 10.0512 -320.556
vt -2.82576 3.26601
f 35/91/13 39/95/13 38/94/13

v 44.535 10.0512 -312.473
vt -2.76987 0.0840484
f 40/96/13 39/95/13 35/91/13

v 44.4945 10.0512 -320.48
vt -2.75394 3.23626
f 40/96/13 41/97/13 39/95/13

v 44.2987 10.0512 -320.454
vt -2.67686 3.2261
f 40/96/13 42/98/13 41/97/13

v 43.4436 10.0512 -312.79
vt -2.34021 0.208878
f 43/99/13 42/98/13 40/96/13

v 42.4006 10.0512 -313.242
vt -1.92957 0.386576
f 44/100/13 42/98/13 43/99/13

v 41.4224 10.0512 -313.82
vt -1.54445 0.614338
f 45/101/13 42/98/13 44/100/13

v 40.5244 10.0512 -314.517
vt -1.1909 0.888574
f 46/102/13 42/98/13 45/101/13

v 39.7208 10.0512 -315.32
vt -0.87452 1.20496
f 47/103/13 42/98/13 46/102/13

v 39.0242 10.0512 -316.218
vt -0.600284 1.5585
f 48/104/13 42/98/13 47/103/13

v 38.4457 10.0512 -317.197
vt -0.372522 1.94363
f 49/105/13 42/98/13 48/104/13

v 37.9943 10.0512 -318.24
vt -0.194824 2.35426
f 50/106/13 42/98/13 49/105/13

v 37.6773 10.0512 -319.331
vt -0.0699941 2.78393
f 51/107/13 42/98/13 50/106/13

v 37.4995 10.0512 -320.454
vt 6.05741e-32 3.22585
f 42/98/13 51/107/13 52/108/13

vt -2.7387 1.79444e-15
vn -0.975917 3.62776e-17 0.218143
v 37.4995 12.5512 -320.454
vt -3.18614 0.984252
vn -0.987688 3.58308e-17 0.156434
vt -3.18614 1.79444e-15
f 51/109/19 53/110/20 52/111/20

v 37.6773 12.5512 -319.331
vt -2.7387 0.984252
f 53/110/20 51/109/19 54/112/19

vt -2.20643 1.80723e-15
vn -0.940881 3.67406e-17 0.338738
vt -2.65386 0.984252
vt -2.65386 1.80723e-15
f 50/113/21 54/114/19 51/115/19

v 37.9943 12.5512 -318.24
vt -2.20643 0.984252
f 54/114/19 50/113/21 55/116/21

vt -1.63582 1.81729e-15
vn -0.891007 3.66242e-17 0.45399
vt -2.08326 0.984252
vt -2.08326 1.81729e-15
f 49/117/22 55/118/21 50/119/21

v 38.4457 12.5512 -317.197
vt -1.63582 0.984252
f 55/118/21 49/117/22 56/120/22

vt -1.0359 1.82398e-15
vn -0.827081 3.59302e-17 0.562083
vt -1.48333 0.984252
vt -1.48333 1.82398e-15
f 48/121/23 56/122/22 49/123/22

v 39.0242 12.5512 -316.218
vt -1.0359 0.984252
f 56/122/22 48/121/23 57/124/23

vt -0.416104 1.82692e-15
vn -0.750111 3.46695e-17 0.661312
vt -0.863538 0.984252
vt -0.863538 1.82692e-15
f 47/125/24 57/126/23 48/127/23

v 39.7208 12.5512 -315.32
vt -0.416104 0.984252
f 57/126/23 47/125/24 58/128/24

vt -0.233655 1.8261e-15
v 40.5244 12.5512 -314.517
vt 0.213779 0.984252
vn -0.661312 3.28621e-17 0.750111
vt -0.233655 0.984252
f 47/129/24 59/130/25 58/131/24

vt 0.213779 1.8261e-15
f 59/130/25 47/129/24 46/132/25

vt 0.396385 1.82184e-15
v 41.4224 12.5512 -313.82
vt 0.843819 0.984252
vn -0.562083 3.05365e-17 0.827081
vt 0.396385 0.984252
f 46/133/25 60/134/26 59/135/25

vt 0.843819 1.82184e-15
f 60/134/26 46/133/25 45/136/26

vt 1.01665 1.81474e-15
v 42.4006 12.5512 -313.242
vt 1.46408 0.984252
vn -0.45399 2.77292e-17 0.891007
vt 1.01665 0.984252
f 45/137/26 61/138/27 60/139/26

vt 1.46408 9.26563e-16
f 61/138/27 45/137/26 44/140/27

vt 1.61734 9.17505e-16
v 43.4436 12.5512 -312.79
vt 2.06478 0.984252
vn -0.338738 2.44847e-17 0.940881
vt 1.61734 0.984252
f 44/141/27 62/142/28 61/143/27

vt 2.06478 9.17505e-16
f 62/142/28 44/141/27 43/144/28

vt 2.18901 9.07565e-16
v 44.535 12.5512 -312.473
vt 2.63644 0.984252
vn -0.218143 2.0854e-17 0.975917
vt 2.18901 0.984252
f 43/145/28 63/146/29 62/147/28

vt 2.63644 9.07565e-16
f 63/146/29 43/145/28 40/148/29

vt 2.72262 8.97943e-16
v 45.6575 12.5512 -312.296
vt 3.17006 0.984252
vn -0.0941083 1.68944e-17 0.995562
vt 2.72262 0.984252
f 40/149/29 64/150/30 63/151/29

vt 3.17006 8.97943e-16
f 64/150/30 40/149/29 35/152/30

vt 3.20977 8.89881e-16
v 46.6016 12.5512 -312.266
vt 3.58167 0.984252
vn -0.0314108 1.48107e-17 0.999507
vt 3.20977 0.984252
f 35/153/30 65/154/31 64/155/30

v 46.6016 10.0512 -312.266
vt 3.58167 8.89881e-16
f 65/154/31 35/153/30 66/156/31

v 46.2249 10.0512 -330.351
vt -3.43519 7.12231
vt -3.58351 0.00237275
f 35/91/13 67/157/13 66/158/13

f 35/91/13 27/72/13 67/157/13

vt -3.64277 0.984252
vt -4.09021 9.59075e-16
vn -0.0314108 -1.26684e-17 -0.999507
vt -3.64277 9.59075e-16
f 28/159/17 67/160/32 27/161/17

v 46.2249 12.5512 -330.351
vt -4.09021 0.984252
f 67/160/32 28/159/17 68/162/32

vt 3.2118 0.0140542
vt 3.43519 7.12231
f 28/79/3 64/163/3 68/164/3

v 45.0551 12.5512 -321.211
vt 2.97466 3.52392
f 69/165/3 64/163/3 28/79/3

v 45.0293 12.5512 -321.015
vt 2.96451 3.44685
f 70/166/3 64/163/3 69/165/3

v 44.9538 12.5512 -320.832
vt 2.93476 3.37502
f 71/167/3 64/163/3 70/166/3

v 44.8336 12.5512 -320.676
vt 2.88744 3.31334
f 72/168/3 64/163/3 71/167/3

v 44.6769 12.5512 -320.556
vt 2.82576 3.26601
f 73/169/3 64/163/3 72/168/3

vt 2.76987 0.0840484
f 73/169/3 63/170/3 64/163/3

v 44.4945 12.5512 -320.48
vt 2.75394 3.23626
f 74/171/3 63/170/3 73/169/3

v 44.2987 12.5512 -320.454
vt 2.67686 3.2261
f 75/172/3 63/170/3 74/171/3

vt 2.34021 0.208878
f 75/172/3 62/173/3 63/170/3

vt 1.92957 0.386576
f 75/172/3 61/174/3 62/173/3

vt 1.54445 0.614338
f 75/172/3 60/175/3 61/174/3

vt 1.1909 0.888574
f 75/172/3 59/176/3 60/175/3

vt 0.87452 1.20496
f 75/172/3 58/177/3 59/176/3

vt 0.600284 1.5585
f 75/172/3 57/178/3 58/177/3

vt 0.372522 1.94363
f 75/172/3 56/179/3 57/178/3

vt 0.194824 2.35426
f 75/172/3 55/180/3 56/179/3

vt 0.0699941 2.78393
f 75/172/3 54/181/3 55/180/3

vt -3.35632e-17 3.22585
f 54/181/3 75/172/3 53/182/3

vt -2.67717 0.984252
vn -9.33566e-05 -1.37431e-17 -1
vt -0.000301155 1.82069e-15
vt -0.000301155 0.984252
f 75/183/33 52/184/33 53/185/33

vt -2.67717 9.32512e-16
f 52/184/33 75/183/33 42/186/33

vt -3.0753 0.984252
vn -0.130611 -9.17472e-18 -0.991434
vt -3.15304 9.14316e-16
vn -0.258894 -4.44932e-18 -0.965906
vt -3.0753 9.14316e-16
f 75/187/34 41/188/35 42/189/34

vt -3.15304 0.984252
f 41/188/35 75/187/34 74/190/35

vt -3.78291 0.984252
vt -3.86065 8.87497e-16
vn -0.500054 5.14768e-18 -0.865994
vt -3.78291 8.87497e-16
f 74/191/35 39/192/36 41/193/35

vt -3.86065 0.984252
f 39/192/36 74/191/35 73/194/36

vt -4.2301 0.984252
vt -4.30784 8.79598e-16
vn -0.70714 1.43939e-17 -0.707074
vt -4.2301 8.79598e-16
f 73/195/36 38/196/37 39/197/36

vt -4.30784 0.984252
f 38/196/37 73/195/36 72/198/37

vt -4.46414 0.984252
vn -0.866041 2.26594e-17 -0.499973
vt -4.3864 8.93297e-16
vt -4.3864 0.984252
f 71/199/38 38/200/37 72/201/37

vt -4.46414 8.93297e-16
f 38/200/37 71/199/38 37/202/38

vt -4.31891 0.984252
vn -0.96593 2.93808e-17 -0.258804
vt -4.24117 9.25443e-16
vt -4.24117 0.984252
f 70/203/39 37/204/38 71/205/38

vt -4.31891 9.25443e-16
f 37/204/38 70/203/39 36/206/39

vt -3.88203 0.984252
vn -1 3.41002e-17 3.87521e-13
vt -3.80429 9.67871e-16
vt -3.80429 0.984252
f 69/207/40 36/208/39 70/209/39

vt -3.88203 9.67871e-16
f 36/208/39 69/207/40 34/210/40

v 45.0293 12.5512 -321.406
vt -3.18327 0.984252
vn -0.96593 3.6496e-17 0.258804
vt -3.10553 1.00955e-15
vt -3.10553 0.984252
f 76/211/41 34/212/40 69/213/40

vt -3.18327 1.00955e-15
f 34/212/40 76/211/41 33/214/41

v 44.9538 12.5512 -321.589
vt -2.27026 0.984252
vn -0.866041 3.6405e-17 0.499973
vt -2.19252 1.03953e-15
vt -2.19252 0.984252
f 77/215/42 33/216/41 76/217/41

vt -2.27026 1.03953e-15
f 33/216/41 77/215/42 32/218/42

v 44.8336 12.5512 -321.746
vt -1.2052 0.984252
vn -0.70714 3.38333e-17 0.707074
vt -1.12746 1.04985e-15
vt -1.12746 0.984252
f 78/219/43 32/220/42 77/221/42

vt -1.2052 1.04985e-15
f 32/220/42 78/219/43 31/222/43

vt 0.017078 0.984252
vt -0.0606643 1.03766e-15
vt 0.017078 1.03766e-15
f 78/223/43 30/224/18 31/225/43

vt -0.0606643 0.984252
f 30/224/18 78/223/43 29/226/18

vt 2.88744 3.73451
f 28/79/3 29/81/3 78/227/3

vt 2.93476 3.67283
f 28/79/3 78/227/3 77/228/3

vt 2.96451 3.601
f 28/79/3 77/228/3 76/229/3

f 28/79/3 76/229/3 69/165/3

vt 3.58351 0.00237275
f 68/164/3 64/163/3 65/230/3

v 46.4166 12.5512 -330.344
vt 3.51069 7.11993
f 68/164/3 65/230/3 79/231/3

v 47.3608 12.5512 -330.315
vt 3.8824 7.10825
f 79/231/3 65/230/3 80/232/3

v 46.7934 12.5512 -312.26
vt 3.65901 -1.35299e-17
f 80/232/3 65/230/3 81/233/3

vt 3.65721 0.984252
vn 0.0314108 1.26684e-17 0.999507
f 66/156/31 81/234/44 65/154/31

v 46.7934 10.0512 -312.26
vt 3.65721 8.89881e-16
f 81/234/44 66/156/31 82/235/44

v 47.3608 10.0512 -330.315
vt -3.8824 7.10825
vt -3.65901 -1.39244e-32
f 66/158/13 83/236/13 82/237/13

v 46.4166 10.0512 -330.344
vt -3.51069 7.11993
f 66/158/13 84/238/13 83/236/13

f 66/158/13 67/157/13 84/238/13

vt -3.20977 0.984252
vt -3.28531 9.95211e-16
vn 0.0314108 -1.48107e-17 -0.999507
vt -3.20977 9.95211e-16
f 68/239/32 84/240/45 67/241/32

vt -3.28531 0.984252
f 84/240/45 68/239/32 79/242/45

vt -3.65721 9.95211e-16
vn 0.0941083 -1.68944e-17 -0.995562
f 79/242/45 83/243/46 84/240/45

vt -3.65721 0.984252
f 83/243/46 79/242/45 80/244/46

vt -2.72262 0.984252
v 48.4833 10.0512 -330.137
vt -3.17006 1.03244e-15
vn 0.218143 -2.0854e-17 -0.975917
vt -2.72262 1.03244e-15
f 80/245/46 85/246/47 83/247/46

v 48.4833 12.5512 -330.137
vt -3.17006 0.984252
f 85/246/47 80/245/46 86/248/47

v 47.9248 12.5512 -312.367
vt 4.10446 0.0421073
vt 4.32432 7.03826
f 80/232/3 87/249/3 86/250/3

f 80/232/3 81/233/3 87/249/3

vt 3.64277 0.984252
v 47.9248 10.0512 -312.367
vt 4.09021 1.77275e-15
vn 0.156434 8.24265e-18 0.987688
vt 4.09021 0.984252
f 81/251/44 88/252/48 87/253/48

vt 3.64277 8.84571e-16
f 88/252/48 81/251/44 82/254/44

vt -4.10446 0.0421073
f 82/237/13 83/236/13 88/255/13

vt -4.32432 7.03826
f 88/255/13 83/236/13 85/256/13

v 49.0339 10.0512 -312.615
vt -4.54112 0.139712
f 88/255/13 85/256/13 89/257/13

v 49.5746 10.0512 -329.82
vt -4.75399 6.91343
f 89/257/13 85/256/13 90/258/13

vt -2.18901 0.984252
vt -2.63644 1.95728e-15
vn 0.278991 -2.27142e-17 -0.960294
vt -2.18901 1.0691e-15
f 86/259/47 90/260/49 85/261/47

v 49.5746 12.5512 -329.82
vt -2.63644 0.984252
f 90/260/49 86/259/47 91/262/49

v 49.0339 12.5512 -312.615
vt 4.54112 0.139712
vt 4.75399 6.91343
f 86/250/3 92/263/3 91/264/3

f 86/250/3 87/249/3 92/263/3

vt 4.0148 1.77125e-15
vt 4.46223 0.984252
vn 0.278991 3.68687e-18 0.960294
vt 4.0148 0.984252
f 88/265/48 92/266/50 87/267/48

vt 4.46223 1.77125e-15
f 92/266/50 88/265/48 89/268/50

vt 4.31998 1.77441e-15
v 50.1032 12.5512 -313
vt 4.76741 0.984252
vn 0.397148 -9.27055e-19 0.917755
vt 4.31998 0.984252
f 89/269/50 93/270/51 92/271/50

v 50.1032 10.0512 -313
vt 4.76741 1.77441e-15
f 93/270/51 89/269/50 94/272/51

vt -4.9621 0.291275
f 89/257/13 90/258/13 94/273/13

v 50.6176 10.0512 -329.369
vt -5.16463 6.73573
f 94/273/13 90/258/13 95/274/13

vt -1.61734 0.984252
vn 0.397148 -2.61586e-17 -0.917755
vt -2.06478 1.99172e-15
vn 0.45399 -2.77292e-17 -0.891007
vt -1.61734 1.99172e-15
f 91/275/52 95/276/53 90/277/52

v 50.6176 12.5512 -329.369
vt -2.06478 0.984252
f 95/276/53 91/275/52 96/278/53

vt 4.9621 0.291275
vt 5.16463 6.73573
f 91/264/3 93/279/3 96/280/3

f 91/264/3 92/263/3 93/279/3

v 51.1158 12.5512 -313.516
vt 5.36077 0.494406
f 96/280/3 93/279/3 97/281/3

vt 4.5535 1.7828e-15
vt 5.00093 0.984252
vn 0.509041 -5.52636e-18 0.860742
vt 4.5535 0.984252
f 94/282/51 97/283/54 93/284/51

v 51.1158 10.0512 -313.516
vt 5.00093 1.7828e-15
f 97/283/54 94/282/51 98/285/54

vt -5.36077 0.494406
f 94/273/13 95/274/13 98/286/13

v 51.5959 10.0512 -328.79
vt -5.54975 6.50797
f 98/286/13 95/274/13 99/287/13

vt -1.01665 0.984252
vt -1.46408 2.02234e-15
vn 0.562083 -3.05365e-17 -0.827081
vt -1.01665 2.02234e-15
f 96/288/53 99/289/55 95/290/53

v 51.5959 12.5512 -328.79
vt -1.46408 0.984252
f 99/289/55 96/288/53 100/291/55

vt 5.54975 6.50797
f 96/280/3 97/281/3 100/292/3

v 52.0558 12.5512 -314.154
vt 5.73083 0.745901
f 100/292/3 97/281/3 101/293/3

vt 4.71168 1.79666e-15
vt 5.15912 0.984252
vn 0.612907 -1.00385e-17 0.790155
vt 4.71168 0.984252
f 98/294/54 101/295/56 97/296/54

v 52.0558 10.0512 -314.154
vt 5.15912 1.79666e-15
f 101/295/56 98/294/54 102/297/56

vt -5.73083 0.745901
f 98/286/13 99/287/13 102/298/13

v 52.4938 10.0512 -328.094
vt -5.90329 6.23373
f 102/298/13 99/287/13 103/299/13

vt -0.396385 0.984252
vt -0.843819 2.04772e-15
vn 0.661312 -3.28621e-17 -0.750111
vt -0.396385 2.04772e-15
f 100/300/55 103/301/57 99/302/55

v 52.4938 12.5512 -328.094
vt -0.843819 0.984252
f 103/301/57 100/300/55 104/303/57

vt 5.90329 6.23373
f 100/292/3 101/293/3 104/304/3

v 52.9083 12.5512 -314.906
vt 6.06646 1.04179
f 104/304/3 101/293/3 105/305/3

vt 4.79203 1.8159e-15
vt 5.23947 0.984252
vn 0.707107 -1.43923e-17 0.707107
vt 4.79203 0.984252
f 102/306/56 105/307/58 101/308/56

v 52.9083 10.0512 -314.906
vt 5.23947 1.8159e-15
f 105/307/58 102/306/56 106/309/58

vt -6.06646 1.04179
f 102/298/13 103/299/13 106/310/13

v 53.2975 10.0512 -327.29
vt -6.21968 5.91735
f 106/310/13 103/299/13 107/311/13

vt 0.233655 0.984252
vt -0.213779 2.06671e-15
vn 0.750111 -3.46695e-17 -0.661312
vt 0.233655 2.06671e-15
f 104/312/57 107/313/59 103/314/57

v 53.2975 12.5512 -327.29
vt -0.213779 0.984252
f 107/313/59 104/312/57 108/315/59

vt 6.21968 5.91735
f 104/304/3 105/305/3 108/316/3

v 53.6599 12.5512 -315.759
vt 6.36235 1.37742
f 108/316/3 105/305/3 109/317/3

vt 4.79328 0.984252
v 53.6599 10.0512 -315.759
vt 5.24072 1.84003e-15
vn 0.790155 -1.85192e-17 0.612907
vt 5.24072 0.984252
f 105/318/58 110/319/60 109/320/60

vt 4.79328 1.84003e-15
f 110/319/60 105/318/58 106/321/58

vt -6.36235 1.37742
f 106/310/13 107/311/13 110/322/13

v 53.994 10.0512 -326.392
vt -6.49391 5.56381
f 110/322/13 107/311/13 111/323/13

vt 0.863538 2.07846e-15
v 53.994 12.5512 -326.392
vt 0.416104 0.984252
vn 0.827081 -3.59302e-17 -0.562083
vt 0.416104 2.07846e-15
f 107/324/59 112/325/61 111/326/61

vt 0.863538 0.984252
f 112/325/61 107/324/59 108/327/59

vt 6.49391 5.56381
f 108/316/3 109/317/3 112/328/3

v 54.2986 12.5512 -316.698
vt 6.61385 1.74748
f 112/328/3 109/317/3 113/329/3

vt 4.71541 0.984252
v 54.2986 10.0512 -316.698
vt 5.16284 1.86826e-15
vn 0.860742 -2.2354e-17 0.509041
vt 5.16284 0.984252
f 109/330/60 114/331/62 113/332/62

vt 4.71541 1.86826e-15
f 114/331/62 109/330/60 110/333/60

vt -6.61385 1.74748
f 110/322/13 111/323/13 114/334/13

v 54.5725 10.0512 -325.414
vt -6.72168 5.17868
f 114/334/13 111/323/13 115/335/13

vt 1.48333 2.08248e-15
v 54.5725 12.5512 -325.414
vt 1.0359 0.984252
vn 0.891007 -3.66242e-17 -0.45399
vt 1.0359 1.1943e-15
f 111/336/61 116/337/63 115/338/63

vt 1.48333 0.984252
f 116/337/63 111/336/61 112/339/61

vt 6.72168 5.17868
f 112/328/3 113/329/3 116/340/3

v 54.8146 12.5512 -317.711
vt 6.81698 2.14615
f 116/340/3 113/329/3 117/341/3

vt 4.55964 0.984252
v 54.8146 10.0512 -317.711
vt 5.00708 1.0113e-15
vn 0.917755 -2.58363e-17 0.397148
vt 5.00708 0.984252
f 113/342/62 118/343/64 117/344/64

vt 4.55964 1.89948e-15
f 118/343/64 113/342/62 114/345/62

vt -6.81698 2.14615
f 114/334/13 115/335/13 118/346/13

v 55.0239 10.0512 -324.371
vt -6.89937 4.76805
f 118/346/13 115/335/13 119/347/13

vt 2.08326 1.19051e-15
v 55.0239 12.5512 -324.371
vt 1.63582 0.984252
vn 0.940881 -3.67406e-17 -0.338738
vt 1.63582 1.19051e-15
f 115/348/63 120/349/65 119/350/65

vt 2.08326 0.984252
f 120/349/65 115/348/63 116/351/63

vt 6.89937 4.76805
f 116/340/3 117/341/3 120/352/3

v 55.1996 12.5512 -318.78
vt 6.96854 2.56713
f 120/352/3 117/341/3 121/353/3

vt 4.32844 0.984252
v 55.1996 10.0512 -318.78
vt 4.77587 1.04416e-15
vn 0.960294 -2.89111e-17 0.278991
vt 4.77587 0.984252
f 117/354/64 122/355/66 121/356/66

vt 4.32844 1.04416e-15
f 122/355/66 117/354/64 118/357/64

vt -6.96854 2.56713
f 118/346/13 119/347/13 122/358/13

v 55.341 10.0512 -323.279
vt -7.0242 4.33838
f 122/358/13 119/347/13 123/359/13

vt 2.65386 1.17921e-15
v 55.341 12.5512 -323.279
vt 2.20643 0.984252
vn 0.975917 -3.62776e-17 -0.218143
vt 2.20643 1.17921e-15
f 119/360/65 124/361/67 123/362/67

vt 2.65386 0.984252
f 124/361/67 119/360/65 120/363/65

vt 7.0242 4.33838
f 120/352/3 121/353/3 124/364/3

v 55.4475 12.5512 -319.889
vt 7.06614 3.00379
f 124/364/3 121/353/3 125/365/3

vt 4.02545 0.984252
v 55.4475 10.0512 -319.889
vt 4.47288 1.07715e-15
vn 0.987688 -3.153e-17 0.156434
vt 4.47288 0.984252
f 121/366/66 126/367/68 125/368/68

vt 4.02545 1.07715e-15
f 126/367/68 121/366/66 122/369/66

vt -7.06614 3.00379
f 122/358/13 123/359/13 126/370/13

v 55.5187 10.0512 -322.157
vt -7.0942 3.89645
f 126/370/13 123/359/13 127/371/13

vt 3.18614 1.16108e-15
v 55.5187 12.5512 -322.157
vt 2.7387 0.984252
vn 0.995562 -3.52425e-17 -0.0941083
vt 2.7387 1.16108e-15
f 123/372/67 128/373/69 127/374/69

vt 3.18614 0.984252
f 128/373/69 123/372/67 124/375/67

vt 7.0942 3.89645
f 124/364/3 125/365/3 128/376/3

v 55.501 12.5512 -320.455
vt 7.0872 3.22652
f 128/376/3 125/365/3 129/377/3

vt 3.65544 0.984252
v 55.501 10.0512 -320.455
vt 3.87916 1.10867e-15
vn 0.995562 -3.26552e-17 0.0941083
vt 3.87916 0.984252
f 125/378/68 130/379/70 129/380/70

vt 3.65544 1.10867e-15
f 130/379/70 125/378/68 126/381/68

vt -7.0872 3.22652
f 126/370/13 127/371/13 130/382/13

v 55.5484 10.0512 -321.213
vt -7.10588 3.52474
f 130/382/13 127/371/13 131/383/13

v 55.5247 10.0512 -321.967
vt -7.09655 3.82175
f 131/383/13 127/371/13 132/384/13

vt 3.6717 1.13714e-15
v 55.5247 12.5512 -321.967
vt 3.59695 0.984252
vn 0.999507 -3.45151e-17 -0.0314108
vt 3.59695 2.48961e-16
f 127/385/69 133/386/71 132/387/71

vt 3.6717 0.984252
f 133/386/71 127/385/69 128/388/69

v 55.5484 12.5512 -321.213
vt 7.10588 3.52474
vt 7.09655 3.82175
f 128/376/3 134/389/3 133/390/3

f 128/376/3 129/377/3 134/389/3

v 55.5544 12.5512 -321.021
vt 7.10825 3.44924
f 134/389/3 129/377/3 135/391/3

v 55.5544 10.0512 -321.021
vt 4.10288 1.10867e-15
vn 0.999507 -3.36516e-17 0.0314108
vt 4.10288 0.984252
f 129/380/70 136/392/72 135/393/72

f 136/392/72 129/380/70 130/379/70

vt -7.10825 3.44924
f 130/382/13 131/383/13 136/394/13

vt 3.2998 1.13714e-15
vt 3.22426 0.984252
vt 3.22426 1.13714e-15
f 131/395/71 135/396/72 136/397/72

vt 3.2998 0.984252
f 135/396/72 131/395/71 134/398/71

f 132/387/71 134/398/71 131/395/71

f 134/398/71 132/387/71 133/386/71

